# xmcd CD database file
#
# Track frame offsets:
#	150
#	14341
#	27412
#	35820
#	44219
#	56851
#	67360
#	80089
#	89024
#	101406
#	115013
#	125451
#	134713
#	145594
#	162095
#	172728
#	185884
#	198057
#	210259
#	225035
#	237262
#	252753
#	261626
#	276968
#	290975
#	306485
#	316692
#
# Disc length: 4359 seconds
#
# Revision: 0
# Processed by: cddbd v1.5.1PL2 Copyright (c) Steve Scherf et al.
# Submitted via: CDex 1.51
#
DISCID=9b11051b
DTITLE=Dean Mitchell - Waitin' for a Train [CD2 of 4)
DYEAR=1999
DGENRE=Country
TTITLE0=Blue Yodel #1 (T Is for Texas)
TTITLE1=Frankie and Johnny
TTITLE2=Gambler's Blues
TTITLE3=Blue Yodel #2 (My Lovin' Gal Lucille)
TTITLE4=Gambling Bar Room Blues
TTITLE5=Cowhand's Last Ride
TTITLE6=Whipping That Old T.B.
TTITLE7=Good Gal Gone Blues
TTITLE8=High Powered Mama
TTITLE9=You and My Old Guitar
TTITLE10=Why Did You Give Me Your Love
TTITLE11=Blue Yodel #5
TTITLE12=Mule Skinner Blues (Blue Yodel #8)
TTITLE13=Blue Yodel #11
TTITLE14=In The Jailhouse Now
TTITLE15=Jimmie the Kid
TTITLE16=Blue Yodel #12 (Barefoot Blues)
TTITLE17=Traveling Blues
TTITLE18=T.B. Blues
TTITLE19=Southern Cannon Ball
TTITLE20=Roll Along Kentucky Moon
TTITLE21=Peach Picking Time In Georgia
TTITLE22=Moonlight and Skies
TTITLE23=Mother the Queen of My Heart
TTITLE24=Train Whistle Blues
TTITLE25=Blue Yodel #3 (Evening Sun Yodel)
TTITLE26=Let Me Be Your Sidetrack
EXTD=YEAR: 1999
EXTT0=
EXTT1=
EXTT2=
EXTT3=
EXTT4=
EXTT5=
EXTT6=
EXTT7=
EXTT8=
EXTT9=
EXTT10=
EXTT11=
EXTT12=
EXTT13=
EXTT14=
EXTT15=
EXTT16=
EXTT17=
EXTT18=
EXTT19=
EXTT20=
EXTT21=
EXTT22=
EXTT23=
EXTT24=
EXTT25=
EXTT26=
PLAYORDER=
